<svg width="54" height="54" viewBox="0 0 54 54" fill="none" xmlns="http://www.w3.org/2000/svg">
<path d="M49.5 27C49.5 14.58 39.42 4.5 27 4.5C14.58 4.5 4.5 14.58 4.5 27C4.5 39.42 14.58 49.5 27 49.5" stroke="#2C59A3" stroke-width="3.375" stroke-linecap="round" stroke-linejoin="round"/>
<path d="M18.0001 6.75H20.2501C15.8626 19.89 15.8626 34.11 20.2501 47.25H18.0001" stroke="#2C59A3" stroke-width="3.375" stroke-linecap="round" stroke-linejoin="round"/>
<path d="M33.75 6.75C35.9325 13.32 37.035 20.16 37.035 27" stroke="#2C59A3" stroke-width="3.375" stroke-linecap="round" stroke-linejoin="round"/>
<path d="M6.75 36V33.75C13.32 35.9325 20.16 37.035 27 37.035" stroke="#2C59A3" stroke-width="3.375" stroke-linecap="round" stroke-linejoin="round"/>
<path d="M6.75 20.25C19.89 15.8625 34.11 15.8625 47.25 20.25" stroke="#2C59A3" stroke-width="3.375" stroke-linecap="round" stroke-linejoin="round"/>
<path d="M43.2224 35.415L35.2573 43.3801C34.9423 43.6951 34.6498 44.2801 34.5823 44.7076L34.1548 47.745C33.9973 48.8475 34.7623 49.6125 35.8648 49.455L38.9023 49.0275C39.3298 48.96 39.9374 48.6675 40.2299 48.3525L48.1948 40.3876C49.5673 39.0151 50.2198 37.4175 48.1948 35.3925C46.1923 33.39 44.5949 34.0425 43.2224 35.415Z" stroke="#2C59A3" stroke-width="3.375" stroke-miterlimit="10" stroke-linecap="round" stroke-linejoin="round"/>
<path d="M42.0747 36.5625C42.7497 38.9925 44.6397 40.8824 47.0697 41.5574" stroke="#2C59A3" stroke-width="3.375" stroke-miterlimit="10" stroke-linecap="round" stroke-linejoin="round"/>
</svg>
