<svg width="54" height="54" viewBox="0 0 54 54" fill="none" xmlns="http://www.w3.org/2000/svg">
<path d="M11.25 22.3264C11.25 33.243 20.8001 42.2706 25.0272 45.7317C25.6321 46.2271 25.9383 46.4777 26.3896 46.6048C26.741 46.7037 27.2583 46.7037 27.6097 46.6048C28.0619 46.4775 28.3659 46.2293 28.9731 45.7321C33.2003 42.2709 42.7498 33.244 42.7498 22.3274C42.7498 18.1962 41.0905 14.2336 38.1368 11.3124C35.1831 8.39114 31.1773 6.75 27.0002 6.75C22.823 6.75 18.8168 8.39138 15.8631 11.3126C12.9094 14.2339 11.25 18.1952 11.25 22.3264Z" stroke="#2C59A3" stroke-width="4.5" stroke-linecap="round" stroke-linejoin="round"/>
<path d="M22.5 20.25C22.5 22.7353 24.5147 24.75 27 24.75C29.4853 24.75 31.5 22.7353 31.5 20.25C31.5 17.7647 29.4853 15.75 27 15.75C24.5147 15.75 22.5 17.7647 22.5 20.25Z" stroke="#2C59A3" stroke-width="4.5" stroke-linecap="round" stroke-linejoin="round"/>
</svg>
