<svg width="54" height="54" viewBox="0 0 54 54" fill="none" xmlns="http://www.w3.org/2000/svg">
<path d="M48.7349 23.49L46.5299 32.895C44.6399 41.0175 40.9049 44.3025 33.8849 43.6275C32.7599 43.5375 31.5449 43.335 30.2399 43.02L26.4599 42.12C17.0774 39.8925 14.1749 35.2575 16.3799 25.8525L18.5849 16.425C19.0349 14.5125 19.5749 12.8475 20.2499 11.475C22.8824 6.03002 27.3599 4.56752 34.8749 6.34502L38.6324 7.22252C48.0599 9.42752 50.9399 14.085 48.7349 23.49Z" stroke="#2C59A3" stroke-width="3.375" stroke-linecap="round" stroke-linejoin="round"/>
<path d="M33.885 43.6275C32.49 44.5725 30.735 45.36 28.5975 46.0575L25.0425 47.2275C16.11 50.1075 11.4075 47.7 8.50504 38.7675L5.62504 29.88C2.74504 20.9475 5.13003 16.2225 14.0625 13.3425L17.6175 12.1725C18.54 11.88 19.4175 11.6325 20.25 11.475C19.575 12.8475 19.035 14.5125 18.585 16.425L16.38 25.8525C14.175 35.2575 17.0775 39.8925 26.46 42.12L30.24 43.02C31.545 43.335 32.76 43.5375 33.885 43.6275Z" stroke="#2C59A3" stroke-width="3.375" stroke-linecap="round" stroke-linejoin="round"/>
<path d="M28.4399 19.1925L39.3524 21.96" stroke="#2C59A3" stroke-width="3.375" stroke-linecap="round" stroke-linejoin="round"/>
<path d="M26.2351 27.9L32.7601 29.565" stroke="#2C59A3" stroke-width="3.375" stroke-linecap="round" stroke-linejoin="round"/>
</svg>
