<svg width="54" height="54" viewBox="0 0 54 54" fill="none" xmlns="http://www.w3.org/2000/svg">
<g clip-path="url(#clip0_8_614)">
<path d="M43.8892 17.9089C40.6499 30.633 30.633 40.6499 17.9089 43.8892C13.092 45.1154 9 40.9706 9 36V33.75C9 32.5074 10.0099 31.5118 11.2464 31.3893C13.3357 31.1822 15.3408 30.6893 17.2223 29.9503L20.6407 33.3687C26.2006 30.708 30.708 26.2006 33.3687 20.6407L29.9503 17.2224C30.6893 15.3409 31.1822 13.3357 31.3893 11.2464C31.5118 10.0099 32.5074 9 33.75 9H36C40.9706 9 45.1154 13.092 43.8892 17.9089Z" stroke="#2C59A3" stroke-width="4.5" stroke-linecap="round" stroke-linejoin="round"/>
</g>
<defs>
<clipPath id="clip0_8_614">
<rect width="54" height="54" fill="white"/>
</clipPath>
</defs>
</svg>
