<svg width="40" height="40" viewBox="0 0 40 40" fill="none" xmlns="http://www.w3.org/2000/svg">
<g clip-path="url(#clip0_8_750)">
<path d="M32.5104 13.2659C30.1109 22.6911 22.691 30.111 13.2658 32.5105C9.6977 33.4188 6.66658 30.3486 6.66658 26.6667V25C6.66658 24.0795 7.41463 23.3421 8.33061 23.2513C9.87818 23.0979 11.3635 22.7328 12.7572 22.1854L15.2893 24.7175C19.4078 22.7466 22.7466 19.4078 24.7174 15.2894L22.1853 12.7573C22.7327 11.3636 23.0978 9.87826 23.2512 8.33069C23.342 7.4147 24.0794 6.66666 24.9999 6.66666H26.6666C30.3485 6.66666 33.4188 9.69777 32.5104 13.2659Z" stroke="white" stroke-width="3.33333" stroke-linecap="round" stroke-linejoin="round"/>
</g>
<defs>
<clipPath id="clip0_8_750">
<rect width="40" height="40" fill="white"/>
</clipPath>
</defs>
</svg>
